<svg width="11" height="20" viewBox="0 0 11 20" fill="none" xmlns="http://www.w3.org/2000/svg">
<path fill-rule="evenodd" clip-rule="evenodd" d="M10.0469 0.936501C10.2717 1.1615 10.3979 1.4665 10.3979 1.7845C10.3979 2.1025 10.2717 2.4075 10.0469 2.6325L2.89494 9.7845L10.0469 16.9365C10.1648 17.0464 10.2594 17.1788 10.325 17.326C10.3906 17.4732 10.4258 17.6321 10.4287 17.7933C10.4315 17.9544 10.4019 18.1144 10.3415 18.2639C10.2812 18.4133 10.1914 18.549 10.0774 18.663C9.96346 18.7769 9.82772 18.8667 9.6783 18.9271C9.52888 18.9874 9.36883 19.0171 9.20771 19.0142C9.04658 19.0114 8.88768 18.9761 8.74048 18.9105C8.59329 18.845 8.4608 18.7504 8.35094 18.6325L0.350945 10.6325C0.126224 10.4075 0 10.1025 0 9.7845C0 9.4665 0.126224 9.1615 0.350945 8.9365L8.35094 0.936501C8.57595 0.71178 8.88094 0.585556 9.19894 0.585556C9.51695 0.585556 9.82194 0.71178 10.0469 0.936501Z" fill="#000"/>
</svg>
