<svg width="4" height="20" viewBox="0 0 4 20" fill="none" xmlns="http://www.w3.org/2000/svg">
<path fill-rule="evenodd" clip-rule="evenodd" d="M3.72502 1.8C3.72502 2.27739 3.54328 2.73523 3.21978 3.07279C2.89628 3.41036 2.45752 3.6 2.00002 3.6C1.54253 3.6 1.10377 3.41036 0.780265 3.07279C0.456765 2.73523 0.275024 2.27739 0.275024 1.8C0.275024 1.32261 0.456765 0.864773 0.780265 0.527208C1.10377 0.189642 1.54253 0 2.00002 0C2.45752 0 2.89628 0.189642 3.21978 0.527208C3.54328 0.864773 3.72502 1.32261 3.72502 1.8ZM3.72502 9.8C3.72502 10.2774 3.54328 10.7352 3.21978 11.0728C2.89628 11.4104 2.45752 11.6 2.00002 11.6C1.54253 11.6 1.10377 11.4104 0.780265 11.0728C0.456765 10.7352 0.275024 10.2774 0.275024 9.8C0.275024 9.32261 0.456765 8.86477 0.780265 8.52721C1.10377 8.18964 1.54253 8 2.00002 8C2.45752 8 2.89628 8.18964 3.21978 8.52721C3.54328 8.86477 3.72502 9.32261 3.72502 9.8ZM2.00002 19.6C2.45752 19.6 2.89628 19.4104 3.21978 19.0728C3.54328 18.7352 3.72502 18.2774 3.72502 17.8C3.72502 17.3226 3.54328 16.8648 3.21978 16.5272C2.89628 16.1896 2.45752 16 2.00002 16C1.54253 16 1.10377 16.1896 0.780265 16.5272C0.456765 16.8648 0.275024 17.3226 0.275024 17.8C0.275024 18.2774 0.456765 18.7352 0.780265 19.0728C1.10377 19.4104 1.54253 19.6 2.00002 19.6Z" fill="#736CED"/>
</svg>
