<svg width="15" height="16" viewBox="0 0 15 16" fill="none" xmlns="http://www.w3.org/2000/svg">
<path fill-rule="evenodd" clip-rule="evenodd" d="M4.5 1.10001C4.63261 1.10001 4.75979 1.15268 4.85355 1.24645C4.94732 1.34022 5 1.4674 5 1.60001V2.10001H10V1.60001C10 1.4674 10.0527 1.34022 10.1464 1.24645C10.2402 1.15268 10.3674 1.10001 10.5 1.10001C10.6326 1.10001 10.7598 1.15268 10.8536 1.24645C10.9473 1.34022 11 1.4674 11 1.60001V2.10001H12.5C12.8978 2.10001 13.2794 2.25804 13.5607 2.53935C13.842 2.82065 14 3.20218 14 3.60001V12.6C14 12.9978 13.842 13.3794 13.5607 13.6607C13.2794 13.942 12.8978 14.1 12.5 14.1H2.5C2.10218 14.1 1.72064 13.942 1.43934 13.6607C1.15804 13.3794 1 12.9978 1 12.6V3.60001C1 3.20218 1.15804 2.82065 1.43934 2.53935C1.72064 2.25804 2.10218 2.10001 2.5 2.10001H4V1.60001C4 1.4674 4.05268 1.34022 4.14645 1.24645C4.24021 1.15268 4.36739 1.10001 4.5 1.10001ZM10 3.10001V3.60001C10 3.73261 10.0527 3.85979 10.1464 3.95356C10.2402 4.04733 10.3674 4.10001 10.5 4.10001C10.6326 4.10001 10.7598 4.04733 10.8536 3.95356C10.9473 3.85979 11 3.73261 11 3.60001V3.10001H12.5C12.6326 3.10001 12.7598 3.15268 12.8536 3.24645C12.9473 3.34022 13 3.4674 13 3.60001V5.10001H2V3.60001C2 3.4674 2.05268 3.34022 2.14645 3.24645C2.24021 3.15268 2.36739 3.10001 2.5 3.10001H4V3.60001C4 3.73261 4.05268 3.85979 4.14645 3.95356C4.24021 4.04733 4.36739 4.10001 4.5 4.10001C4.63261 4.10001 4.75979 4.04733 4.85355 3.95356C4.94732 3.85979 5 3.73261 5 3.60001V3.10001H10ZM2 6.10001V12.6C2 12.7326 2.05268 12.8598 2.14645 12.9536C2.24021 13.0473 2.36739 13.1 2.5 13.1H12.5C12.6326 13.1 12.7598 13.0473 12.8536 12.9536C12.9473 12.8598 13 12.7326 13 12.6V6.10001H2ZM7 7.60001C7 7.4674 7.05268 7.34022 7.14645 7.24645C7.24021 7.15268 7.36739 7.10001 7.5 7.10001C7.63261 7.10001 7.75979 7.15268 7.85355 7.24645C7.94732 7.34022 8 7.4674 8 7.60001C8 7.73261 7.94732 7.85979 7.85355 7.95356C7.75979 8.04733 7.63261 8.10001 7.5 8.10001C7.36739 8.10001 7.24021 8.04733 7.14645 7.95356C7.05268 7.85979 7 7.73261 7 7.60001ZM9.5 7.10001C9.36739 7.10001 9.24021 7.15268 9.14645 7.24645C9.05268 7.34022 9 7.4674 9 7.60001C9 7.73261 9.05268 7.85979 9.14645 7.95356C9.24021 8.04733 9.36739 8.10001 9.5 8.10001C9.63261 8.10001 9.75979 8.04733 9.85355 7.95356C9.94732 7.85979 10 7.73261 10 7.60001C10 7.4674 9.94732 7.34022 9.85355 7.24645C9.75979 7.15268 9.63261 7.10001 9.5 7.10001ZM11 7.60001C11 7.4674 11.0527 7.34022 11.1464 7.24645C11.2402 7.15268 11.3674 7.10001 11.5 7.10001C11.6326 7.10001 11.7598 7.15268 11.8536 7.24645C11.9473 7.34022 12 7.4674 12 7.60001C12 7.73261 11.9473 7.85979 11.8536 7.95356C11.7598 8.04733 11.6326 8.10001 11.5 8.10001C11.3674 8.10001 11.2402 8.04733 11.1464 7.95356C11.0527 7.85979 11 7.73261 11 7.60001ZM11.5 9.10001C11.3674 9.10001 11.2402 9.15268 11.1464 9.24645C11.0527 9.34022 11 9.4674 11 9.60001C11 9.73261 11.0527 9.85979 11.1464 9.95356C11.2402 10.0473 11.3674 10.1 11.5 10.1C11.6326 10.1 11.7598 10.0473 11.8536 9.95356C11.9473 9.85979 12 9.73261 12 9.60001C12 9.4674 11.9473 9.34022 11.8536 9.24645C11.7598 9.15268 11.6326 9.10001 11.5 9.10001ZM9 9.60001C9 9.4674 9.05268 9.34022 9.14645 9.24645C9.24021 9.15268 9.36739 9.10001 9.5 9.10001C9.63261 9.10001 9.75979 9.15268 9.85355 9.24645C9.94732 9.34022 10 9.4674 10 9.60001C10 9.73261 9.94732 9.85979 9.85355 9.95356C9.75979 10.0473 9.63261 10.1 9.5 10.1C9.36739 10.1 9.24021 10.0473 9.14645 9.95356C9.05268 9.85979 9 9.73261 9 9.60001ZM7.5 9.10001C7.36739 9.10001 7.24021 9.15268 7.14645 9.24645C7.05268 9.34022 7 9.4674 7 9.60001C7 9.73261 7.05268 9.85979 7.14645 9.95356C7.24021 10.0473 7.36739 10.1 7.5 10.1C7.63261 10.1 7.75979 10.0473 7.85355 9.95356C7.94732 9.85979 8 9.73261 8 9.60001C8 9.4674 7.94732 9.34022 7.85355 9.24645C7.75979 9.15268 7.63261 9.10001 7.5 9.10001ZM5 9.60001C5 9.4674 5.05268 9.34022 5.14645 9.24645C5.24021 9.15268 5.36739 9.10001 5.5 9.10001C5.63261 9.10001 5.75979 9.15268 5.85355 9.24645C5.94732 9.34022 6 9.4674 6 9.60001C6 9.73261 5.94732 9.85979 5.85355 9.95356C5.75979 10.0473 5.63261 10.1 5.5 10.1C5.36739 10.1 5.24021 10.0473 5.14645 9.95356C5.05268 9.85979 5 9.73261 5 9.60001ZM3.5 9.10001C3.36739 9.10001 3.24021 9.15268 3.14645 9.24645C3.05268 9.34022 3 9.4674 3 9.60001C3 9.73261 3.05268 9.85979 3.14645 9.95356C3.24021 10.0473 3.36739 10.1 3.5 10.1C3.63261 10.1 3.75979 10.0473 3.85355 9.95356C3.94732 9.85979 4 9.73261 4 9.60001C4 9.4674 3.94732 9.34022 3.85355 9.24645C3.75979 9.15268 3.63261 9.10001 3.5 9.10001ZM3 11.6C3 11.4674 3.05268 11.3402 3.14645 11.2465C3.24021 11.1527 3.36739 11.1 3.5 11.1C3.63261 11.1 3.75979 11.1527 3.85355 11.2465C3.94732 11.3402 4 11.4674 4 11.6C4 11.7326 3.94732 11.8598 3.85355 11.9536C3.75979 12.0473 3.63261 12.1 3.5 12.1C3.36739 12.1 3.24021 12.0473 3.14645 11.9536C3.05268 11.8598 3 11.7326 3 11.6ZM5.5 11.1C5.36739 11.1 5.24021 11.1527 5.14645 11.2465C5.05268 11.3402 5 11.4674 5 11.6C5 11.7326 5.05268 11.8598 5.14645 11.9536C5.24021 12.0473 5.36739 12.1 5.5 12.1C5.63261 12.1 5.75979 12.0473 5.85355 11.9536C5.94732 11.8598 6 11.7326 6 11.6C6 11.4674 5.94732 11.3402 5.85355 11.2465C5.75979 11.1527 5.63261 11.1 5.5 11.1ZM7 11.6C7 11.4674 7.05268 11.3402 7.14645 11.2465C7.24021 11.1527 7.36739 11.1 7.5 11.1C7.63261 11.1 7.75979 11.1527 7.85355 11.2465C7.94732 11.3402 8 11.4674 8 11.6C8 11.7326 7.94732 11.8598 7.85355 11.9536C7.75979 12.0473 7.63261 12.1 7.5 12.1C7.36739 12.1 7.24021 12.0473 7.14645 11.9536C7.05268 11.8598 7 11.7326 7 11.6ZM9.5 11.1C9.36739 11.1 9.24021 11.1527 9.14645 11.2465C9.05268 11.3402 9 11.4674 9 11.6C9 11.7326 9.05268 11.8598 9.14645 11.9536C9.24021 12.0473 9.36739 12.1 9.5 12.1C9.63261 12.1 9.75979 12.0473 9.85355 11.9536C9.94732 11.8598 10 11.7326 10 11.6C10 11.4674 9.94732 11.3402 9.85355 11.2465C9.75979 11.1527 9.63261 11.1 9.5 11.1Z" fill="#4E4E70"/>
</svg>
