<svg width="15" height="16" viewBox="0 0 15 16" fill="none" xmlns="http://www.w3.org/2000/svg">
<path fill-rule="evenodd" clip-rule="evenodd" d="M0.876953 8.10001C0.876953 6.34348 1.57473 4.65889 2.81678 3.41684C4.05884 2.17478 5.74342 1.47701 7.49995 1.47701C9.25648 1.47701 10.9411 2.17478 12.1831 3.41684C13.4252 4.65889 14.123 6.34348 14.123 8.10001C14.123 9.85653 13.4252 11.5411 12.1831 12.7832C10.9411 14.0252 9.25648 14.723 7.49995 14.723C5.74342 14.723 4.05884 14.0252 2.81678 12.7832C1.57473 11.5411 0.876953 9.85653 0.876953 8.10001ZM7.49995 2.42701C5.99538 2.42701 4.55243 3.02469 3.48854 4.08859C2.42464 5.15248 1.82695 6.59543 1.82695 8.10001C1.82695 9.60458 2.42464 11.0475 3.48854 12.1114C4.55243 13.1753 5.99538 13.773 7.49995 13.773C9.00453 13.773 10.4475 13.1753 11.5114 12.1114C12.5753 11.0475 13.173 9.60458 13.173 8.10001C13.173 6.59543 12.5753 5.15248 11.5114 4.08859C10.4475 3.02469 9.00453 2.42701 7.49995 2.42701Z" fill="#56567B"/>
</svg>
