<svg width="16" height="17" viewBox="0 0 16 17" fill="none" xmlns="http://www.w3.org/2000/svg">
<path fill-rule="evenodd" clip-rule="evenodd" d="M10.1713 2.75657C10.0713 2.65642 9.93565 2.60011 9.79412 2.60001C9.65259 2.59991 9.51682 2.65603 9.41667 2.75604C9.31653 2.85604 9.26021 2.99173 9.26011 3.13326C9.26001 3.27479 9.31614 3.41056 9.41614 3.5107L10.1127 4.20724L4.94147 8.0867L3.75961 6.90484C3.65902 6.80769 3.5243 6.75393 3.38446 6.75514C3.24462 6.75636 3.11085 6.81245 3.01197 6.91133C2.91309 7.01022 2.857 7.14398 2.85578 7.28382C2.85457 7.42366 2.90832 7.55838 3.00547 7.65897L4.51374 9.16724L5.64441 10.299L2.15641 13.787C2.10682 13.8366 2.06749 13.8954 2.04065 13.9602C2.01381 14.025 2 14.0944 2 14.1646C2 14.2347 2.01381 14.3041 2.04065 14.3689C2.06749 14.4337 2.10682 14.4926 2.15641 14.5422C2.20599 14.5918 2.26486 14.6311 2.32965 14.6579C2.39444 14.6848 2.46388 14.6986 2.53401 14.6986C2.60413 14.6986 2.67357 14.6848 2.73836 14.6579C2.80315 14.6311 2.86202 14.5918 2.91161 14.5422L6.39961 11.0542L7.53027 12.1848L9.03961 13.6931C9.08881 13.744 9.14766 13.7847 9.21273 13.8126C9.27779 13.8406 9.34778 13.8553 9.41859 13.8559C9.48941 13.8565 9.55964 13.843 9.62518 13.8162C9.69073 13.7894 9.75028 13.7498 9.80035 13.6997C9.85043 13.6496 9.89003 13.5901 9.91685 13.5245C9.94366 13.459 9.95716 13.3888 9.95654 13.318C9.95593 13.2471 9.94121 13.1772 9.91326 13.1121C9.88531 13.047 9.84468 12.9882 9.79374 12.939L8.61187 11.7571L12.4913 6.5859L13.1879 7.28244C13.2371 7.33338 13.2959 7.37401 13.361 7.40196C13.4261 7.42991 13.496 7.44462 13.5669 7.44524C13.6377 7.44585 13.7079 7.43236 13.7734 7.40554C13.839 7.37873 13.8985 7.33912 13.9486 7.28905C13.9987 7.23897 14.0383 7.17942 14.0651 7.11388C14.0919 7.04833 14.1054 6.97811 14.1048 6.90729C14.1042 6.83647 14.0895 6.76649 14.0615 6.70142C14.0336 6.63635 13.9929 6.5775 13.942 6.5283L12.8113 5.39657L11.302 3.8883L10.1713 2.75657ZM5.70201 8.8483L10.8753 4.96884L11.7287 5.82324L7.85027 10.9966L5.70307 8.84724L5.70201 8.8483Z" fill="#4E4E70"/>
</svg>
