<svg width="16" height="17" viewBox="0 0 16 17" fill="none" xmlns="http://www.w3.org/2000/svg">
<path d="M7.89667 14.6C7.48461 14.6 7.07256 14.4438 6.75996 14.1313L2.1563 9.53693C2.05634 9.43715 2.00012 9.30178 2 9.16057V3.79925C2 3.50811 2.24155 3.26667 2.53283 3.26667H7.88957C8.03166 3.26667 8.16664 3.32348 8.2661 3.4229L12.8698 8.0244C13.4879 8.6493 13.4879 9.66475 12.8698 10.2896L9.02628 14.1313C8.71368 14.4438 8.30163 14.6 7.88957 14.6H7.89667ZM3.06566 8.94044L7.51303 13.3786C7.72617 13.5846 8.06718 13.5846 8.27321 13.3786L12.1167 9.53693C12.3227 9.331 12.3227 8.99015 12.1167 8.77712L7.66933 4.33184H3.06566V8.93334V8.94044ZM5.18278 7.3356C4.94726 7.3356 4.72138 7.24208 4.55483 7.07561C4.38829 6.90915 4.29473 6.68338 4.29473 6.44796C4.29473 6.21254 4.38829 5.98677 4.55483 5.82031C4.72138 5.65384 4.94726 5.56032 5.18278 5.56032C5.41831 5.56032 5.64419 5.65384 5.81073 5.82031C5.97727 5.98677 6.07084 6.21254 6.07084 6.44796C6.07084 6.68338 5.97727 6.90915 5.81073 7.07561C5.64419 7.24208 5.41831 7.3356 5.18278 7.3356Z" fill="#4E4E70"/>
</svg>
